<svg xmlns="http://www.w3.org/2000/svg" viewBox="0 0 2400 1800" fill="currentColor">
<g transform="translate(0,1800) scale(1,-1)">
<path d="M1088 1362 l-198 -115 0 -173 0 -173 -110 -62 -110 -63 0 -247 0
-248 93 -54 c50 -30 144 -84 208 -121 l117 -67 211 121 c145 84 211 127 211
139 0 12 -62 53 -200 132 l-199 114 -1 42 0 41 293 -169 c160 -93 300 -169
310 -169 16 0 17 17 15 252 l-3 253 -170 98 c-93 54 -173 101 -177 105 -4 4
73 53 170 108 145 83 177 105 177 123 0 18 -35 43 -197 137 -109 63 -208 114
-220 113 -13 -1 -112 -53 -220 -117z m231 -396 l361 -209 0 -194 c0 -106 -3
-193 -7 -193 -5 0 -170 94 -368 209 l-360 208 -3 198 c-1 112 1 195 6 193 5
-1 172 -97 371 -212z m-207 -483 c169 -98 308 -180 308 -183 0 -5 -307 -186
-326 -192 -5 -2 -92 44 -192 102 l-182 105 0 198 0 198 43 -25 c23 -14 180
-106 349 -203z"/>
</g>
</svg>
